SplineFontDB: 3.0
FontName: Monda-Medium
FullName: Monda Medium
FamilyName: Monda
Weight: Normal
Copyright: 
Version: 1.000;PS (version unavailable);hotconv 1.0.57;makeotf.lib2.0.21895 DEVELOPMENT
ItalicAngle: 0
UnderlinePosition: 0
UnderlineWidth: 0
Ascent: 1638
Descent: 410
UFOAscent: 1638
UFODescent: -410
LayerCount: 2
Layer: 0 0 "Back"  1
Layer: 1 0 "Fore"  0
FSType: 1
OS2Version: 0
OS2_WeightWidthSlopeOnly: 0
OS2_UseTypoMetrics: 0
CreationTime: 1352845334
ModificationTime: 1352917476
PfmFamily: 0
TTFWeight: 400
TTFWidth: 5
LineGap: 0
VLineGap: 0
Panose: 2 0 7 3 0 0 0 0 0 0
OS2TypoAscent: 1638
OS2TypoAOffset: 0
OS2TypoDescent: -410
OS2TypoDOffset: 0
OS2TypoLinegap: 0
OS2WinAscent: 2361
OS2WinAOffset: 0
OS2WinDescent: 572
OS2WinDOffset: 0
HheadAscent: 2361
HheadAOffset: 0
HheadDescent: -572
HheadDOffset: 0
OS2SubXSize: 1331
OS2SubYSize: 1228
OS2SubXOff: 0
OS2SubYOff: 153
OS2SupXSize: 1331
OS2SupYSize: 1228
OS2SupXOff: 0
OS2SupYOff: 716
OS2StrikeYSize: 0
OS2StrikeYPos: 650
OS2Vendor: 'newt'
OS2CodePages: 00000001.00000000
OS2UnicodeRanges: 0000002f.0000004c.00000002.00000000
Lookup: 258 0 0 "'kern' Horizontal Kerning in Latin lookup 0"  {"'kern' Horizontal Kerning in Latin lookup 0 subtable"  } ['kern' ('latn' <'dflt' > ) ]
MarkAttachClasses: 1
DEI: 91125
LangName: 1033 "" "" "" "1.000;newt;Monda-Medium" "" "Version 1.000;PS (version unavailable);hotconv 1.0.57;makeotf.lib2.0.21895 DEVELOPMENT" 
PickledData: "(dp1
S'com.typemytype.robofont.compileSettings.autohint'
p2
I0
sS'com.typemytype.robofont.compileSettings.decompose'
p3
I0
sS'com.typemytype.robofont.foreground.layerStrokeColor'
p4
(F0.5
F0
F0.5
F0.69999999999999996
tp5
sS'com.typemytype.robofont.compileSettings.releaseMode'
p6
I0
sS'com.typemytype.robofont.b.layerStrokeColor'
p7
(F1
F0.75
F0
F0.69999999999999996
tp8
sS'com.typemytype.robofont.compileSettings.path'
p9
S'/Users/vern/Github/mondaFont/src/Monda-Medium.otf'
p10
sS'com.robofont.robohint'
p11
(dp12
S'programs'
p13
(dp14
S'maxp'
p15
(dp16

StartChar: .notdef
Encoding: 65536 -1 0
Width: 1024
VWidth: 0
Flags: MW
PickledData: "(dp1
S'com.typemytype.robofont.layerData'
p2
(dp3
s."
LayerCount: 2
Fore
SplineSet
204 102 m 1
 820 102 l 1
 820 990 l 1
 204 990 l 1
 204 102 l 1
102 0 m 1
 102 1092 l 1
 922 1092 l 1
 922 0 l 1
 102 0 l 1
EndSplineSet
EndChar

StartChar: A
Encoding: 33 65 1
Width: 1376
VWidth: 0
Flags: MW
PickledData: "(dp1
S'com.typemytype.robofont.layerData'
p2
(dp3
s."
LayerCount: 2
Fore
SplineSet
1308 0 m 1
 1103 0 l 1
 1005 282 l 1
 376 282 l 1
 277 0 l 1
 68 0 l 1
 599 1446 l 1
 776 1446 l 1
 1308 0 l 1
959 417 m 1
 693 1184 l 1
 424 417 l 1
 959 417 l 1
EndSplineSet
EndChar

StartChar: B
Encoding: 34 66 2
Width: 1462
VWidth: 0
Flags: MW
PickledData: "(dp1
S'com.typemytype.robofont.layerData'
p2
(dp3
s."
LayerCount: 2
Fore
SplineSet
799 -1 m 2
 224 -1 l 1
 224 1446 l 1
 762 1446 l 2
 1163 1446 1258 1320 1258 1049 c 0
 1258 922 1230 809 1116 769 c 1
 1267 731 1333 572 1333 448 c 0
 1333 135 1166 -1 799 -1 c 2
426 833 m 1
 827 833 l 2
 1009 833 1057 917 1057 1047 c 0
 1057 1256 986 1295 742 1295 c 2
 426 1295 l 1
 426 833 l 1
426 696 m 1
 426 149 l 1
 779 149 l 2
 1003 149 1132 180 1132 446 c 0
 1132 578 1077 696 856 696 c 2
 426 696 l 1
EndSplineSet
EndChar

StartChar: C
Encoding: 35 67 3
Width: 1448
VWidth: 0
Flags: MW
PickledData: "(dp1
S'com.typemytype.robofont.layerData'
p2
(dp3
s."
LayerCount: 2
Fore
SplineSet
1094 900 m 1
 1094 992 l 2
 1094 1249 1003 1332 747 1332 c 0
 493 1332 372 1249 372 992 c 2
 372 455 l 2
 372 199 493 126 749 126 c 0
 1007 126 1094 199 1094 455 c 2
 1094 558 l 1
 1289 558 l 1
 1289 500 l 2
 1289 203 1214 -24 749 -24 c 0
 266 -24 170 185 170 486 c 2
 170 955 l 2
 170 1261 262 1483 747 1483 c 0
 1214 1483 1289 1248 1289 942 c 2
 1289 900 l 1
 1094 900 l 1
EndSplineSet
EndChar

StartChar: D
Encoding: 36 68 4
Width: 1510
VWidth: 0
Flags: MW
PickledData: "(dp1
S'com.typemytype.robofont.layerData'
p2
(dp3
s."
LayerCount: 2
Fore
SplineSet
774 150 m 2
 982 150 1139 196 1139 462 c 2
 1139 971 l 2
 1139 1238 980 1295 774 1295 c 2
 426 1295 l 1
 426 150 l 1
 774 150 l 2
224 0 m 1
 224 1446 l 1
 792 1446 l 2
 1193 1446 1340 1235 1340 959 c 2
 1340 482 l 2
 1340 169 1161 0 794 0 c 2
 224 0 l 1
EndSplineSet
EndChar

StartChar: E
Encoding: 37 69 5
Width: 1241
VWidth: 0
Flags: MW
PickledData: "(dp1
S'com.typemytype.robofont.layerData'
p2
(dp3
s."
LayerCount: 2
Fore
SplineSet
224 1446 m 1
 1067 1446 l 1
 1067 1296 l 1
 425 1296 l 1
 425 814 l 1
 1006 814 l 1
 1006 664 l 1
 425 664 l 1
 425 150 l 1
 1076 150 l 1
 1076 0 l 1
 224 0 l 1
 224 1446 l 1
EndSplineSet
EndChar

StartChar: Eth
Encoding: 140 208 10
AltUni2: 000110.ffffffff.0
Width: 1510
VWidth: 0
Flags: HMW
PickledData: "(dp1
S'com.typemytype.robofont.layerData'
p2
(dp3
s."
LayerCount: 2
Fore
SplineSet
763 659 m 5
 84 659 l 5
 84 807 l 5
 763 807 l 5
 763 659 l 5
EndSplineSet
Refer: 4 68 N 1 0 0 1 -0.00155125 0 2
EndChar

StartChar: F
Encoding: 38 70 11
Width: 1185
VWidth: 0
Flags: MW
PickledData: "(dp1
S'com.typemytype.robofont.layerData'
p2
(dp3
s."
LayerCount: 2
Fore
SplineSet
224 0 m 1
 224 1446 l 1
 1054 1446 l 1
 1054 1296 l 1
 425 1296 l 1
 425 814 l 1
 1009 814 l 1
 1009 664 l 1
 425 664 l 1
 425 0 l 1
 224 0 l 1
EndSplineSet
EndChar

StartChar: G
Encoding: 39 71 12
Width: 1491
VWidth: 0
Flags: MW
PickledData: "(dp1
S'com.typemytype.robofont.layerData'
p2
(dp3
s."
LayerCount: 2
Fore
SplineSet
1219 0 m 1
 1175 216 l 1
 1141 96 1035 -24 749 -24 c 0
 266 -24 170 185 170 486 c 2
 170 955 l 2
 170 1261 268 1483 753 1483 c 0
 1220 1483 1289 1248 1289 942 c 2
 1289 900 l 1
 1094 900 l 1
 1094 992 l 2
 1094 1249 1009 1332 753 1332 c 0
 499 1332 372 1249 372 992 c 2
 372 455 l 2
 372 199 493 126 749 126 c 0
 1007 126 1094 199 1094 455 c 2
 1094 588 l 1
 870 588 l 1
 870 735 l 1
 1310 735 l 1
 1310 0 l 1
 1219 0 l 1
EndSplineSet
EndChar

StartChar: H
Encoding: 40 72 13
Width: 1529
VWidth: 0
Flags: MW
PickledData: "(dp1
S'com.typemytype.robofont.layerData'
p2
(dp3
s."
LayerCount: 2
Fore
SplineSet
224 1446 m 1
 425 1446 l 1
 425 807 l 5
 1104 807 l 5
 1104 1446 l 1
 1305 1446 l 1
 1305 0 l 1
 1104 0 l 1
 1104 659 l 5
 425 659 l 5
 425 0 l 1
 224 0 l 1
 224 1446 l 1
EndSplineSet
EndChar

StartChar: I
Encoding: 41 73 14
Width: 1131
VWidth: 0
Flags: MW
PickledData: "(dp1
S'com.typemytype.robofont.layerData'
p2
(dp3
s."
LayerCount: 2
Fore
SplineSet
944 0 m 1
 193 0 l 1
 193 150 l 1
 468 150 l 1
 468 1297 l 1
 193 1297 l 1
 193 1446 l 1
 944 1446 l 1
 944 1297 l 1
 669 1297 l 1
 669 150 l 1
 944 150 l 1
 944 0 l 1
EndSplineSet
EndChar

StartChar: J
Encoding: 42 74 19
Width: 1169
VWidth: 0
Flags: MW
PickledData: "(dp1
S'com.typemytype.robofont.layerData'
p2
(dp3
s."
LayerCount: 2
Fore
SplineSet
153 225 m 1
 200 203 334 148 480 148 c 0
 671 148 744 248 744 435 c 2
 744 1281 l 1
 380 1281 l 1
 380 1446 l 1
 945 1446 l 1
 945 431 l 2
 945 157 811 -17 486 -17 c 0
 318 -17 163 36 98 70 c 1
 153 225 l 1
EndSplineSet
EndChar

StartChar: K
Encoding: 43 75 20
Width: 1400
VWidth: 0
Flags: MW
PickledData: "(dp1
S'com.typemytype.robofont.layerData'
p2
(dp3
s."
LayerCount: 2
Fore
SplineSet
224 1446 m 1
 425 1446 l 1
 425 657 l 1
 581 844 l 1
 1110 1446 l 1
 1328 1446 l 1
 784 798 l 1
 1357 0 l 1
 1134 0 l 1
 643 690 l 1
 425 468 l 1
 425 0 l 1
 224 0 l 1
 224 1446 l 1
EndSplineSet
EndChar

StartChar: L
Encoding: 44 76 21
Width: 1138
VWidth: 0
Flags: MW
PickledData: "(dp1
S'com.typemytype.robofont.layerData'
p2
(dp3
s."
LayerCount: 2
Fore
SplineSet
224 1446 m 5
 425 1446 l 5
 425 155 l 5
 1073 155 l 1
 1073 0 l 1
 224 0 l 5
 224 1446 l 5
EndSplineSet
EndChar

StartChar: Lslash
Encoding: 244 321 22
Width: 722
VWidth: 0
Flags: MW
PickledData: "(dp1
S'com.typemytype.robofont.layerData'
p2
(dp3
s."
LayerCount: 2
Fore
SplineSet
82 1459 m 1
 370 1459 l 1
 370 956 l 1
 626 1031 l 1
 626 889 l 1
 370 814 l 1
 370 194 l 1
 700 194 l 1
 700 0 l 1
 82 0 l 1
 82 708 l 1
 11 679 l 1
 11 822 l 1
 82 850 l 1
 82 1459 l 1
EndSplineSet
EndChar

StartChar: M
Encoding: 45 77 23
Width: 1772
VWidth: 0
Flags: MW
PickledData: "(dp1
S'com.typemytype.robofont.layerData'
p2
(dp3
s."
LayerCount: 2
Fore
SplineSet
224 0 m 1
 224 1446 l 1
 409 1446 l 1
 887 638 l 1
 1370 1446 l 1
 1548 1446 l 1
 1548 0 l 1
 1358 0 l 1
 1358 1121 l 1
 962 458 l 1
 813 458 l 1
 416 1117 l 1
 416 0 l 1
 224 0 l 1
EndSplineSet
EndChar

StartChar: N
Encoding: 46 78 24
Width: 1602
VWidth: 0
Flags: MW
PickledData: "(dp1
S'com.typemytype.robofont.layerData'
p2
(dp3
s."
LayerCount: 2
Fore
SplineSet
224 0 m 1
 224 1446 l 1
 377 1446 l 1
 1203 281 l 1
 1203 1446 l 1
 1378 1446 l 1
 1378 0 l 1
 1199 0 l 1
 399 1115 l 1
 399 0 l 1
 224 0 l 1
EndSplineSet
EndChar

StartChar: O
Encoding: 47 79 25
Width: 1506
VWidth: 0
Flags: MW
PickledData: "(dp1
S'com.typemytype.robofont.layerData'
p2
(dp3
s."
LayerCount: 2
Fore
SplineSet
762 126 m 0
 1020 126 1135 199 1135 455 c 2
 1135 992 l 2
 1135 1249 1018 1332 762 1332 c 0
 508 1332 372 1249 372 992 c 2
 372 455 l 2
 372 199 506 126 762 126 c 0
762 -24 m 0
 279 -24 170 185 170 486 c 2
 170 955 l 2
 170 1261 277 1483 762 1483 c 0
 1229 1483 1336 1248 1336 942 c 2
 1336 500 l 2
 1336 203 1227 -24 762 -24 c 0
EndSplineSet
EndChar

StartChar: OE
Encoding: 258 338 26
Width: 1505
VWidth: 0
Flags: MW
PickledData: "(dp1
S'com.typemytype.robofont.layerData'
p2
(dp3
s."
LayerCount: 2
Fore
SplineSet
762 150 m 1
 762 1295 l 1
 508 1295 372 1212 372 955 c 2
 372 479 l 2
 372 223 506 150 762 150 c 1
762 0 m 2
 279 0 170 209 170 510 c 2
 170 918 l 2
 170 1224 277 1446 762 1446 c 2
 1377 1446 l 1
 1377 1296 l 1
 963 1296 l 1
 963 814 l 1
 1316 814 l 1
 1316 664 l 1
 963 664 l 1
 963 150 l 1
 1386 150 l 1
 1386 0 l 1
 762 0 l 2
EndSplineSet
EndChar

StartChar: Oslash
Encoding: 148 216 27
Width: 1506
VWidth: 0
Flags: MW
PickledData: "(dp1
S'com.typemytype.robofont.layerData'
p2
(dp3
s."
LayerCount: 2
Fore
SplineSet
1054 1676 m 1
 1158 1638 l 1
 479 -195 l 1
 376 -157 l 1
 1054 1676 l 1
EndSplineSet
Refer: 25 79 N 1 0 0 1 0 0 2
EndChar

StartChar: P
Encoding: 48 80 28
Width: 1348
VWidth: 0
Flags: MW
PickledData: "(dp1
S'com.typemytype.robofont.layerData'
p2
(dp3
s."
LayerCount: 2
Fore
SplineSet
426 682 m 1
 804 682 l 2
 979 682 1002 828 1003 935 c 1
 1003 1018 l 2
 1003 1118 988 1293 807 1293 c 2
 426 1293 l 1
 426 682 l 1
224 0 m 1
 224 1446 l 1
 801 1446 l 2
 1044 1446 1199 1320 1205 1024 c 1
 1205 957 l 2
 1205 645 1046 529 800 529 c 2
 426 529 l 1
 426 0 l 1
 224 0 l 1
EndSplineSet
EndChar

StartChar: Q
Encoding: 49 81 29
Width: 1506
VWidth: 0
Flags: MW
PickledData: "(dp1
S'com.typemytype.robofont.layerData'
p2
(dp3
s."
LayerCount: 2
Fore
SplineSet
762 126 m 0
 1020 126 1135 199 1135 455 c 2
 1135 992 l 2
 1135 1249 1018 1332 762 1332 c 0
 508 1332 372 1249 372 992 c 2
 372 455 l 2
 372 199 506 126 762 126 c 0
880 -18 m 1
 1072 -308 l 1
 931 -384 l 1
 700 -23 l 1
 269 -6 170 198 170 486 c 2
 170 955 l 2
 170 1261 277 1483 762 1483 c 0
 1229 1483 1336 1248 1336 942 c 2
 1336 500 l 2
 1336 230 1246 18 880 -18 c 1
EndSplineSet
EndChar

StartChar: R
Encoding: 50 82 30
Width: 1456
VWidth: 0
Flags: HMW
PickledData: "(dp1
S'com.typemytype.robofont.layerData'
p2
(dp3
s."
LayerCount: 2
Fore
SplineSet
426 719 m 1
 860 719 l 2
 1035 719 1069 840 1070 947 c 1
 1070 1018 l 2
 1070 1118 1055 1293 874 1293 c 2
 426 1293 l 1
 426 719 l 1
224 0 m 1
 224 1446 l 1
 868 1446 l 2
 1111 1446 1266 1320 1272 1024 c 1
 1272 969 l 2
 1272 763 1198 654 1077 603 c 1
 1334 0 l 1
 1122 0 l 1
 890 567 l 1
 879 567 868 566 856 566 c 2
 426 566 l 1
 426 0 l 1
 224 0 l 1
EndSplineSet
EndChar

StartChar: S
Encoding: 51 83 31
Width: 1280
VWidth: 0
Flags: MW
PickledData: "(dp1
S'com.typemytype.robofont.layerData'
p2
(dp3
s."
LayerCount: 2
Fore
SplineSet
133 209 m 1
 220 338 l 1
 302 252 452 138 652 138 c 0
 836 138 951 196 964 352 c 0
 975 483 920 544 754 616 c 2
 468 740 l 2
 295 815 149 900 157 1118 c 0
 166 1374 391 1481 641 1481 c 0
 908 1481 1067 1371 1132 1284 c 1
 1042 1159 l 1
 967 1250 843 1322 656 1326 c 1
 457 1328 362 1246 353 1137 c 0
 345 1040 374 978 530 911 c 2
 831 780 l 2
 1003 706 1162 618 1156 380 c 0
 1150 124 950 -27 646 -23 c 1
 437 -18 238 72 133 209 c 1
EndSplineSet
EndChar

StartChar: T
Encoding: 52 84 32
Width: 1173
VWidth: 0
Flags: MW
PickledData: "(dp1
S'com.typemytype.robofont.layerData'
p2
(dp3
s."
LayerCount: 2
Fore
SplineSet
69 1446 m 1
 1104 1446 l 1
 1104 1281 l 1
 687 1281 l 1
 687 0 l 1
 486 0 l 1
 486 1281 l 1
 69 1281 l 1
 69 1446 l 1
EndSplineSet
EndChar

StartChar: U
Encoding: 53 85 33
Width: 1522
VWidth: 0
Flags: MW
PickledData: "(dp1
S'com.typemytype.robofont.guides'
p2
((dp3
S'angle'
p4
I0
sS'name'
p5
NsS'magnetic'
p6
I5
sS'isGlobal'
p7
I00
sS'y'
I446
sS'x'
I594
s(dp8
g4
I0
sg5
Nsg6
I5
sg7
I00
sS'y'
I468
sS'x'
I914
stp9
sS'com.typemytype.robofont.layerData'
p10
(dp11
s."
LayerCount: 2
Fore
SplineSet
200 473 m 2
 200 1446 l 1
 402 1446 l 1
 402 452 l 2
 402 186 570 132 771 132 c 0
 974 132 1120 186 1120 452 c 2
 1120 1446 l 1
 1322 1446 l 1
 1322 473 l 2
 1322 205 1224 -24 771 -24 c 0
 298 -24 200 202 200 473 c 2
EndSplineSet
EndChar

StartChar: V
Encoding: 54 86 34
Width: 1384
VWidth: 0
Flags: MW
PickledData: "(dp1
S'com.typemytype.robofont.layerData'
p2
(dp3
s."
LayerCount: 2
Fore
SplineSet
90 1446 m 1
 297 1446 l 1
 695 294 l 1
 1093 1446 l 1
 1302 1446 l 1
 782 0 l 1
 605 0 l 1
 90 1446 l 1
EndSplineSet
EndChar

StartChar: W
Encoding: 55 87 35
Width: 1950
VWidth: 0
Flags: MW
PickledData: "(dp1
S'com.typemytype.robofont.layerData'
p2
(dp3
s."
LayerCount: 2
Fore
SplineSet
112 1446 m 1
 289 1446 l 1
 571 346 l 1
 863 1446 l 1
 911 1446 l 1
 1037 1446 l 1
 1078 1446 l 1
 1384 346 l 1
 1662 1446 l 1
 1845 1446 l 1
 1464 0 l 1
 1312 0 l 1
 974 1217 l 1
 642 0 l 1
 490 0 l 1
 112 1446 l 1
EndSplineSet
EndChar

StartChar: X
Encoding: 56 88 36
Width: 1341
VWidth: 0
Flags: MW
PickledData: "(dp1
S'com.typemytype.robofont.layerData'
p2
(dp3
s."
LayerCount: 2
Fore
SplineSet
779 734 m 1
 1248 0 l 1
 1030 0 l 1
 673 568 l 1
 311 0 l 1
 115 0 l 1
 571 731 l 1
 122 1446 l 1
 325 1446 l 1
 675 898 l 1
 1016 1446 l 1
 1233 1446 l 1
 779 734 l 1
EndSplineSet
EndChar

StartChar: Y
Encoding: 57 89 37
Width: 1312
VWidth: 0
Flags: MW
PickledData: "(dp1
S'com.typemytype.robofont.layerData'
p2
(dp3
s."
LayerCount: 2
Fore
SplineSet
67 1446 m 1
 268 1446 l 1
 673 724 l 1
 1061 1446 l 1
 1256 1446 l 1
 773 568 l 1
 773 0 l 1
 572 0 l 1
 572 568 l 1
 67 1446 l 1
EndSplineSet
EndChar

StartChar: Z
Encoding: 58 90 40
Width: 1237
VWidth: 0
Flags: MW
PickledData: "(dp1
S'com.typemytype.robofont.layerData'
p2
(dp3
s."
LayerCount: 2
Fore
SplineSet
216 1446 m 1
 1081 1446 l 1
 1081 1295 l 1
 395 165 l 1
 1095 165 l 1
 1095 0 l 1
 173 0 l 1
 173 150 l 1
 860 1281 l 1
 216 1281 l 1
 216 1446 l 1
EndSplineSet
EndChar

StartChar: a
Encoding: 65 97 42
Width: 1155
VWidth: 0
Flags: MW
PickledData: "(dp1
S'com.typemytype.robofont.layerData'
p2
(dp3
s."
LayerCount: 2
Fore
SplineSet
776 273 m 1
 776 576 l 1
 747 547 685 512 549 477 c 0
 333 421 304 368 310 266 c 0
 316 160 392 113 495 113 c 0
 608 113 746 175 776 273 c 1
1095 128 m 1
 1095 -8 l 1
 1081 -10 1032 -12 1015 -12 c 0
 874 -12 829 42 797 142 c 1
 750 70 661 -20 466 -20 c 0
 241 -20 128 120 128 283 c 0
 128 423 188 514 534 597 c 0
 654 626 776 647 776 753 c 0
 776 830 773 940 581 940 c 0
 368 940 350 830 350 745 c 2
 350 695 l 1
 169 695 l 1
 169 746 l 2
 169 955 309 1080 587 1080 c 0
 867 1080 964 917 964 699 c 2
 964 268 l 2
 964 165 984 128 1095 128 c 1
EndSplineSet
EndChar

StartChar: acute
Encoding: 114 180 43
Width: 616
VWidth: 0
Flags: MW
PickledData: "(dp1
S'com.typemytype.robofont.layerData'
p2
(dp3
s."
LayerCount: 2
Fore
SplineSet
115 1496 m 1
 340 1496 l 1
 478 1155 l 1
 372 1155 l 1
 115 1496 l 1
EndSplineSet
EndChar

StartChar: asciicircum
Encoding: 62 94 45
Width: 1257
VWidth: 0
Flags: MW
PickledData: "(dp1
S'com.typemytype.robofont.layerData'
p2
(dp3
s."
LayerCount: 2
Fore
SplineSet
735 1283 m 1
 1103 626 l 1
 910 626 l 1
 628 1161 l 1
 348 626 l 1
 154 626 l 1
 513 1283 l 1
 735 1283 l 1
EndSplineSet
EndChar

StartChar: asterisk
Encoding: 10 42 46
Width: 1132
VWidth: 0
Flags: MW
PickledData: "(dp1
S'com.typemytype.robofont.layerData'
p2
(dp3
s."
LayerCount: 2
Fore
SplineSet
477 1446 m 1
 655 1446 l 1
 625 1121 l 1
 898 1295 l 1
 979 1134 l 1
 688 1017 l 1
 968 875 l 1
 873 722 l 1
 626 912 l 1
 655 599 l 1
 477 599 l 1
 506 924 l 1
 233 750 l 1
 153 911 l 1
 443 1028 l 1
 163 1170 l 1
 258 1323 l 1
 505 1133 l 1
 477 1446 l 1
EndSplineSet
EndChar

StartChar: b
Encoding: 66 98 47
Width: 1198
VWidth: 0
Flags: MW
PickledData: "(dp1
S'com.typemytype.robofont.layerData'
p2
(dp3
s."
LayerCount: 2
Fore
SplineSet
320 0 m 1
 181 0 l 1
 181 1446 l 1
 369 1446 l 1
 369 1014 l 1
 437 1053 544 1084 643 1084 c 0
 914 1084 1048 940 1048 736 c 2
 1048 352 l 2
 1048 139 895 -16 619 -16 c 0
 493 -16 400 36 344 71 c 1
 320 0 l 1
369 874 m 1
 369 188 l 1
 424 157 502 125 591 125 c 0
 739 125 860 202 860 332 c 2
 860 750 l 2
 860 877 772 942 634 942 c 0
 546 942 439 906 369 874 c 1
EndSplineSet
EndChar

StartChar: backslash
Encoding: 60 92 48
Width: 979
VWidth: 0
Flags: MW
PickledData: "(dp1
S'com.typemytype.robofont.layerData'
p2
(dp3
s."
LayerCount: 2
Fore
SplineSet
665 1446 m 1
 858 1446 l 1
 320 0 l 1
 125 0 l 1
 665 1446 l 1
EndSplineSet
EndChar

StartChar: bar
Encoding: 92 124 49
Width: 666
VWidth: 0
Flags: MW
PickledData: "(dp1
S'com.typemytype.robofont.layerData'
p2
(dp3
s."
LayerCount: 2
Fore
SplineSet
432 1555 m 1
 432 -167 l 1
 254 -167 l 1
 254 1555 l 1
 432 1555 l 1
EndSplineSet
EndChar

StartChar: bracketleft
Encoding: 59 91 50
Width: 827
VWidth: 0
Flags: MW
PickledData: "(dp1
S'com.typemytype.robofont.layerData'
p2
(dp3
s."
LayerCount: 2
Fore
SplineSet
455 58 m 1
 645 58 l 1
 645 -76 l 1
 224 -76 l 1
 224 1529 l 1
 645 1529 l 1
 645 1396 l 1
 455 1396 l 1
 455 58 l 1
EndSplineSet
EndChar

StartChar: bracketright
Encoding: 61 93 51
Width: 804
VWidth: 0
Flags: MW
PickledData: "(dp1
S'com.typemytype.robofont.layerData'
p2
(dp3
s."
LayerCount: 2
Fore
SplineSet
182 1496 m 1
 580 1496 l 1
 580 -76 l 1
 182 -76 l 1
 182 38 l 1
 369 38 l 1
 369 1382 l 1
 182 1382 l 1
 182 1496 l 1
EndSplineSet
EndChar

StartChar: breve
Encoding: 340 728 52
Width: 676
VWidth: 0
Flags: HMW
PickledData: "(dp1
S'com.typemytype.robofont.layerData'
p2
(dp3
s."
LayerCount: 2
Fore
SplineSet
121 1397 m 1
 236 1397 l 1
 237.48046875 1337.75976562 263.569335938 1277.54003906 328.990234375 1277.54003906 c 0
 393.8203125 1277.54003906 418 1336.98046875 418 1397 c 1
 534 1397 l 1
 534 1271.61035156 450.41796875 1178.61035156 327.001953125 1178.61035156 c 0
 203.91796875 1178.61035156 121 1271.20996094 121 1397 c 1
EndSplineSet
EndChar

StartChar: brokenbar
Encoding: 101 166 53
Width: 674
VWidth: 0
Flags: MW
PickledData: "(dp1
S'com.typemytype.robofont.layerData'
p2
(dp3
S'b'
(dp4
S'name'
p5
S'brokenbar'
p6
sS'lib'
p7
(dp8
sS'unicodes'
p9
(tsS'width'
p10
I674
sS'contours'
p11
((dp12
S'points'
p13
((dp14
S'segmentType'
p15
S'line'
p16
sS'x'
F432
sS'smooth'
p17
I00
sS'y'
F1555
s(dp18
g15
S'line'
p19
sS'x'
F432
sg17
I00
sS'y'
F-167
s(dp20
g15
S'line'
p21
sS'x'
F254
sg17
I00
sS'y'
F-167
s(dp22
g15
S'line'
p23
sS'x'
F254
sg17
I00
sS'y'
F1555
stp24
stp25
sS'components'
p26
(tsS'anchors'
p27
(tsss."
LayerCount: 2
Fore
SplineSet
432 513 m 1
 432 -167 l 1
 254 -167 l 1
 254 513 l 1
 432 513 l 1
432 1555 m 1
 432 848 l 1
 254 848 l 1
 254 1555 l 1
 432 1555 l 1
EndSplineSet
EndChar

StartChar: bullet
Encoding: 366 8226 54
Width: 975
VWidth: 0
Flags: MW
PickledData: "(dp1
S'com.typemytype.robofont.layerData'
p2
(dp3
s."
LayerCount: 2
Fore
SplineSet
180 599 m 0
 180 795 262 901 487 901 c 0
 714 901 795 795 795 599 c 0
 795 405 713 298 486 298 c 0
 260 298 180 404 180 599 c 0
EndSplineSet
EndChar

StartChar: c
Encoding: 67 99 55
Width: 1123
VWidth: 0
Flags: MW
PickledData: "(dp1
S'com.typemytype.robofont.layerData'
p2
(dp3
s."
LayerCount: 2
Fore
SplineSet
826 679 m 1
 826 774 l 2
 826 899 730 938 585 938 c 0
 439 938 335 888 335 757 c 2
 335 308 l 2
 335 166 438 121 585 121 c 0
 724 121 826 153 826 283 c 2
 826 356 l 1
 1008 356 l 1
 1008 289 l 2
 1008 94 914 -20 585 -20 c 0
 269 -20 148 118 148 314 c 2
 148 751 l 2
 148 951 322 1080 585 1080 c 0
 848 1080 1008 981 1008 768 c 2
 1008 679 l 1
 826 679 l 1
EndSplineSet
EndChar

StartChar: caron
Encoding: 339 711 56
Width: 901
VWidth: 0
Flags: HMW
PickledData: "(dp1
S'com.typemytype.robofont.layerData'
p2
(dp3
s."
LayerCount: 2
Fore
SplineSet
380 1150 m 1
 163 1416 l 1
 324 1416 l 1
 456 1242 l 1
 580 1416 l 1
 736 1416 l 1
 530 1150 l 1
 380 1150 l 1
EndSplineSet
EndChar

StartChar: cedilla
Encoding: 117 184 58
Width: 579
VWidth: 0
Flags: MW
PickledData: "(dp1
S'com.typemytype.robofont.layerData'
p2
(dp3
s."
LayerCount: 2
Fore
SplineSet
282 0 m 1
 288 -94 l 1
 435 -120 509 -214 509 -303 c 0
 509 -397 427 -486 262 -486 c 0
 234 -486 203 -484 169 -478 c 1
 169 -382 l 1
 195 -387 219 -389 240 -389 c 0
 338 -389 380 -342 380 -290 c 0
 380 -229 320 -161 220 -158 c 1
 220 0 l 1
 282 0 l 1
EndSplineSet
EndChar

StartChar: cent
Encoding: 97 162 59
Width: 1098
VWidth: 0
Flags: MW
PickledData: "(dp1
S'com.typemytype.robofont.layerData'
p2
(dp3
s."
LayerCount: 2
Fore
SplineSet
809 694 m 1
 809 792 l 2
 809 920 710 959 565 959 c 0
 419 959 315 908 315 774 c 2
 315 315 l 2
 315 170 418 124 565 124 c 0
 704 124 809 156 809 289 c 2
 809 364 l 1
 991 364 l 1
 991 309 l 2
 991 125 908 0 637 -18 c 1
 637 -205 l 1
 500 -205 l 1
 500 -18 l 1
 232 0 128 135 128 321 c 2
 128 768 l 2
 128 956 274 1081 500 1101 c 1
 500 1275 l 1
 637 1275 l 1
 637 1101 l 1
 857 1081 991 968 991 771 c 2
 991 694 l 1
 809 694 l 1
EndSplineSet
EndChar

StartChar: circumflex
Encoding: 338 710 60
Width: 901
VWidth: 0
Flags: HMW
PickledData: "(dp1
S'com.typemytype.robofont.layerData'
p2
(dp3
s."
LayerCount: 2
Fore
SplineSet
380 1416 m 1
 530 1416 l 1
 736 1150 l 1
 580 1150 l 1
 456 1324 l 1
 324 1150 l 1
 163 1150 l 1
 380 1416 l 1
EndSplineSet
EndChar

StartChar: colon
Encoding: 26 58 61
Width: 567
VWidth: 0
Flags: MW
PickledData: "(dp1
S'com.typemytype.robofont.layerData'
p2
(dp3
s."
LayerCount: 2
Fore
SplineSet
164 353 m 1
 415 353 l 1
 415 99 l 1
 164 99 l 1
 164 353 l 1
164 1023 m 1
 415 1023 l 1
 415 768 l 1
 164 768 l 1
 164 1023 l 1
EndSplineSet
EndChar

StartChar: comma
Encoding: 12 44 62
Width: 495
VWidth: 0
Flags: MW
PickledData: "(dp1
S'com.typemytype.robofont.layerData'
p2
(dp3
s."
LayerCount: 2
Fore
SplineSet
135 211 m 1
 369 211 l 1
 369 50 l 2
 369 -141 278 -284 220 -338 c 1
 139 -294 l 1
 186 -239 253 -132 253 0 c 1
 135 0 l 1
 135 211 l 1
EndSplineSet
EndChar

StartChar: copyright
Encoding: 104 169 63
Width: 1865
VWidth: 0
Flags: MW
PickledData: "(dp1
S'com.typemytype.robofont.layerData'
p2
(dp3
s."
LayerCount: 2
Fore
SplineSet
1152 836 m 1
 1152 890 l 2
 1152 1042 1094 1091 942 1091 c 0
 791 1091 711 1042 711 890 c 2
 711 571 l 2
 711 419 791 376 943 376 c 0
 1096 376 1152 419 1152 571 c 2
 1152 632 l 1
 1268 632 l 1
 1268 598 l 2
 1268 422 1219 287 943 287 c 0
 656 287 591 411 591 590 c 2
 591 868 l 2
 591 1050 654 1182 942 1182 c 0
 1219 1182 1268 1043 1268 861 c 2
 1268 836 l 1
 1152 836 l 1
932 -14 m 0
 519 -14 176 303 176 722 c 0
 176 1139 519 1456 932 1456 c 0
 1348 1456 1689 1139 1689 722 c 0
 1689 303 1348 -14 932 -14 c 0
934 82 m 0
 1300 82 1583 357 1583 722 c 0
 1583 1086 1300 1361 934 1361 c 0
 570 1361 285 1086 285 722 c 0
 285 357 570 82 934 82 c 0
EndSplineSet
EndChar

StartChar: d
Encoding: 68 100 64
Width: 1187
VWidth: 0
Flags: MW
PickledData: "(dp1
S'com.typemytype.robofont.layerData'
p2
(dp3
s."
LayerCount: 2
Fore
SplineSet
827 1446 m 1
 1015 1446 l 1
 1015 0 l 1
 887 0 l 1
 856 61 l 1
 794 17 679 -16 570 -16 c 0
 265 -16 150 124 150 328 c 2
 150 735 l 2
 150 948 295 1084 603 1084 c 0
 670 1084 761 1068 827 1044 c 1
 827 1446 l 1
827 189 m 1
 827 896 l 1
 771 923 693 943 605 943 c 0
 457 943 338 886 338 756 c 2
 338 314 l 2
 338 187 444 126 582 126 c 0
 689 126 784 163 827 189 c 1
EndSplineSet
EndChar

StartChar: dagger
Encoding: 390 8224 65
Width: 890
VWidth: 0
Flags: MW
PickledData: "(dp1
S'com.typemytype.robofont.layerData'
p2
(dp3
s."
LayerCount: 2
Fore
SplineSet
348 1446 m 1
 536 1446 l 1
 536 1060 l 1
 802 1060 l 1
 802 931 l 1
 536 931 l 1
 536 0 l 1
 348 0 l 1
 348 931 l 1
 88 931 l 1
 88 1060 l 1
 348 1060 l 1
 348 1446 l 1
EndSplineSet
EndChar

StartChar: daggerdbl
Encoding: 365 8225 66
Width: 938
VWidth: 0
Flags: MW
PickledData: "(dp1
S'com.typemytype.robofont.layerData'
p2
(dp3
s."
LayerCount: 2
Fore
SplineSet
372 0 m 1
 372 409 l 1
 112 409 l 1
 112 538 l 1
 372 538 l 1
 372 931 l 1
 112 931 l 1
 112 1060 l 1
 372 1060 l 1
 372 1446 l 1
 560 1446 l 1
 560 1060 l 1
 826 1060 l 1
 826 931 l 1
 560 931 l 1
 560 538 l 1
 826 538 l 1
 826 409 l 1
 560 409 l 1
 560 0 l 1
 372 0 l 1
EndSplineSet
EndChar

StartChar: degree
Encoding: 111 176 67
Width: 1036
VWidth: 0
Flags: HMW
PickledData: "(dp1
S'com.typemytype.robofont.guides'
p2
((dp3
S'angle'
p4
F90
sS'name'
p5
NsS'magnetic'
p6
I5
sS'isGlobal'
p7
I00
sS'y'
I1204
sS'x'
I513
stp8
sS'com.typemytype.robofont.layerData'
p9
(dp10
s."
LayerCount: 2
Fore
SplineSet
486.5 885 m 0
 319 885 265 1024 265 1123 c 0
 265 1222 320 1360 486.5 1360 c 0
 658.5 1360 711.5 1222 711.5 1123 c 0
 711.5 1024 659.5 885 486.5 885 c 0
486.5 1445 m 0
 272 1445 160 1295 160 1122 c 0
 160 950 274 799 487.5 799 c 0
 706.5 799 816.5 950 816.5 1122 c 0
 816.5 1295 706.5 1445 486.5 1445 c 0
EndSplineSet
EndChar

StartChar: dieresis
Encoding: 103 168 68
Width: 956
VWidth: 0
Flags: MW
PickledData: "(dp1
S'com.typemytype.robofont.layerData'
p2
(dp3
s."
LayerCount: 2
Fore
SplineSet
117 1265 m 1
 117 1446 l 1
 323 1446 l 1
 323 1265 l 1
 117 1265 l 1
620 1265 m 1
 620 1446 l 1
 826 1446 l 1
 826 1265 l 1
 620 1265 l 1
EndSplineSet
EndChar

StartChar: divide
Encoding: 179 247 69
Width: 1073
VWidth: 0
Flags: MW
PickledData: "(dp1
S'com.typemytype.robofont.layerData'
p2
(dp3
s."
LayerCount: 2
Fore
SplineSet
949 609 m 1
 949 472 l 1
 124 472 l 1
 124 609 l 1
 949 609 l 1
648 996 m 1
 648 787 l 1
 431 787 l 1
 431 996 l 1
 648 996 l 1
648 299 m 1
 648 90 l 1
 431 90 l 1
 431 299 l 1
 648 299 l 1
EndSplineSet
EndChar

StartChar: dotlessi
Encoding: 231 305 71
Width: 577
VWidth: 0
Flags: MW
PickledData: "(dp1
S'com.typemytype.robofont.layerData'
p2
(dp3
s."
LayerCount: 2
Fore
SplineSet
209 1060 m 1
 396 1060 l 1
 396 0 l 1
 209 0 l 1
 209 1060 l 1
EndSplineSet
EndChar

StartChar: e
Encoding: 69 101 72
Width: 1132
VWidth: 0
Flags: MW
PickledData: "(dp1
S'com.typemytype.robofont.layerData'
p2
(dp3
s."
LayerCount: 2
Fore
SplineSet
338 633 m 1
 811 633 l 1
 811 778 l 2
 811 906 727 938 582 938 c 0
 432 938 338 891 338 760 c 2
 338 633 l 1
582 -20 m 0
 266 -20 150 122 150 326 c 2
 150 743 l 2
 150 943 303 1080 582 1080 c 0
 858 1080 993 959 993 758 c 2
 993 506 l 1
 338 506 l 1
 338 310 l 2
 338 179 418 121 582 121 c 0
 721 121 811 152 811 282 c 2
 811 336 l 1
 993 336 l 1
 993 297 l 2
 993 102 911 -20 582 -20 c 0
EndSplineSet
EndChar

StartChar: ellipsis
Encoding: 391 8230 73
Width: 1427
VWidth: 0
Flags: MW
PickledData: "(dp1
S'com.typemytype.robofont.layerData'
p2
(dp3
s."
LayerCount: 2
Fore
SplineSet
1776 255 m 1
 2029 255 l 1
 2029 0 l 1
 1776 0 l 1
 1776 255 l 1
944 255 m 1
 1197 255 l 1
 1197 0 l 1
 944 0 l 1
 944 255 l 1
112 255 m 1
 365 255 l 1
 365 0 l 1
 112 0 l 1
 112 255 l 1
EndSplineSet
EndChar

StartChar: emdash
Encoding: 358 8212 74
Width: 1101
VWidth: 0
Flags: MW
PickledData: "(dp1
S'com.typemytype.robofont.layerData'
p2
(dp3
s."
LayerCount: 2
Fore
SplineSet
2 548 m 1
 1098 548 l 1
 1098 402 l 1
 2 402 l 1
 2 548 l 1
EndSplineSet
EndChar

StartChar: endash
Encoding: 357 8211 75
Width: 539
VWidth: 0
Flags: MW
PickledData: "(dp1
S'com.typemytype.robofont.layerData'
p2
(dp3
s."
LayerCount: 2
Fore
SplineSet
2 732 m 1
 535 732 l 1
 535 606 l 1
 2 606 l 1
 2 732 l 1
EndSplineSet
EndChar

StartChar: equal
Encoding: 29 61 76
Width: 1217
VWidth: 0
Flags: MW
PickledData: "(dp1
S'com.typemytype.robofont.layerData'
p2
(dp3
s."
LayerCount: 2
Fore
SplineSet
207 953 m 1
 1010 953 l 1
 1010 805 l 1
 207 805 l 1
 207 953 l 1
207 615 m 1
 1010 615 l 1
 1010 467 l 1
 207 467 l 1
 207 615 l 1
EndSplineSet
EndChar

StartChar: eth
Encoding: 172 240 77
Width: 841
VWidth: 0
Flags: MW
PickledData: "(dp1
S'com.typemytype.robofont.layerData'
p2
(dp3
s."
LayerCount: 2
Fore
SplineSet
501 753 m 2
 501 787 461 805 416 805 c 0
 371 805 331 787 331 748 c 2
 331 254 l 2
 331 219 336 178 411 178 c 0
 490 178 501 218 501 254 c 2
 501 753 l 2
168 1309 m 1
 232 1483 l 1
 452 1483 589 1418 653 1341 c 1
 766 1393 l 1
 818 1285 l 1
 711 1236 l 1
 745 1150 765 1056 765 948 c 2
 765 251 l 2
 765 83 623 -20 411 -20 c 0
 204 -20 68 83 68 251 c 2
 68 768 l 2
 68 918 178 1002 296 1002 c 0
 353 1002 433 989 498 963 c 1
 496 1027 489 1083 472 1129 c 1
 286 1074 l 1
 235 1182 l 1
 386 1237 l 1
 326 1269 257 1309 168 1309 c 1
EndSplineSet
EndChar

StartChar: exclam
Encoding: 1 33 78
Width: 680
VWidth: 0
Flags: MW
PickledData: "(dp1
S'com.typemytype.robofont.layerData'
p2
(dp3
s."
LayerCount: 2
Fore
SplineSet
249 1446 m 1
 451 1446 l 1
 451 1060 372 371 372 371 c 1
 316 371 l 1
 316 371 249 1060 249 1446 c 1
242 206 m 1
 447 206 l 1
 447 0 l 1
 242 0 l 1
 242 206 l 1
EndSplineSet
EndChar

StartChar: f
Encoding: 70 102 80
Width: 793
VWidth: 0
Flags: MW
PickledData: "(dp1
S'com.typemytype.robofont.layerData'
p2
(dp3
s."
LayerCount: 2
Fore
SplineSet
572 1434 m 2
 691 1434 l 1
 691 1301 l 1
 607 1301 l 2
 472 1301 466 1244 466 1168 c 2
 466 1060 l 1
 693 1060 l 1
 693 943 l 1
 466 943 l 1
 466 0 l 1
 278 0 l 1
 278 943 l 1
 101 943 l 1
 101 1060 l 1
 278 1060 l 1
 278 1137 l 2
 278 1335 354 1434 572 1434 c 2
EndSplineSet
EndChar

StartChar: uniFB01
Encoding: 374 64257 81
Width: 1248
VWidth: 0
Flags: MW
PickledData: "(dp1
S'com.typemytype.robofont.layerData'
p2
(dp3
s."
LayerCount: 2
Fore
SplineSet
557 1446 m 2
 663 1446 l 1
 663 1313 l 1
 592 1313 l 2
 457 1313 451 1256 451 1180 c 2
 451 1060 l 1
 935 1060 l 1
 935 943 l 1
 451 943 l 1
 451 0 l 1
 263 0 l 1
 263 943 l 1
 101 943 l 1
 101 1060 l 1
 263 1060 l 1
 263 1149 l 2
 263 1347 339 1446 557 1446 c 2
EndSplineSet
Refer: 91 105 N 1 0 0 1 671 0 2
EndChar

StartChar: uniFB02
Encoding: 375 64258 82
Width: 1377
VWidth: 0
Flags: MW
PickledData: "(dp1
S'com.typemytype.robofont.layerData'
p2
(dp3
s."
LayerCount: 2
Fore
SplineSet
1086 1446 m 1
 1086 360 l 2
 1086 217 1104 145 1291 145 c 2
 1320 145 l 1
 1320 0 l 1
 1248 0 l 2
 1016 0 898 83 898 362 c 2
 898 1313 l 1
 622 1313 l 2
 488 1313 451 1224 451 1148 c 2
 451 1060 l 1
 666 1060 l 1
 666 943 l 1
 451 943 l 1
 451 0 l 1
 263 0 l 1
 263 943 l 1
 101 943 l 1
 101 1060 l 1
 263 1060 l 1
 263 1258 369 1446 587 1446 c 2
 1086 1446 l 1
EndSplineSet
EndChar

StartChar: florin
Encoding: 392 402 83
Width: 890
VWidth: 0
Flags: MW
PickledData: "(dp1
S'com.typemytype.robofont.layerData'
p2
(dp3
s."
LayerCount: 2
Fore
SplineSet
710 1334 m 1
 695 1335 681 1336 668 1336 c 0
 521 1336 521 1247 521 1177 c 2
 521 858 l 1
 650 858 l 1
 650 727 l 1
 521 727 l 1
 521 91 l 2
 521 -81 494 -191 253 -191 c 0
 220 -191 190 -189 141 -183 c 1
 141 -59 l 1
 164 -61 184 -62 201 -62 c 0
 333 -62 333 -1 333 63 c 2
 333 727 l 1
 216 727 l 1
 216 858 l 1
 333 858 l 1
 333 1155 l 2
 333 1321 353 1466 560 1466 c 0
 594 1466 654 1464 710 1458 c 1
 710 1334 l 1
EndSplineSet
EndChar

StartChar: fraction
Encoding: 369 8260 84
Width: 979
VWidth: 0
Flags: MW
PickledData: "(dp1
S'com.typemytype.robofont.layerData'
p2
(dp3
S'b'
(dp4
S'name'
p5
S'fraction'
p6
sS'lib'
p7
(dp8
sS'unicodes'
p9
(tsS'width'
p10
I979
sS'contours'
p11
(tsS'components'
p12
(tsS'anchors'
p13
(tsss."
LayerCount: 2
Fore
SplineSet
665 1446 m 1
 858 1446 l 1
 320 0 l 1
 125 0 l 1
 665 1446 l 1
EndSplineSet
EndChar

StartChar: g
Encoding: 71 103 85
Width: 1197
VWidth: 0
Flags: MW
PickledData: "(dp1
S'com.typemytype.robofont.layerData'
p2
(dp3
s."
LayerCount: 2
Fore
SplineSet
1027 30 m 2
 1027 -188 900 -350 620 -350 c 0
 477 -350 360 -335 262 -282 c 1
 314 -143 l 1
 353 -169 481 -210 614 -210 c 0
 806 -210 842 -100 841 -23 c 2
 839 100 l 1
 779 44 666 15 593 15 c 0
 322 15 160 132 160 352 c 2
 160 728 l 2
 160 941 291 1076 567 1076 c 0
 675 1076 809 1025 839 975 c 1
 839 1060 l 1
 1027 1060 l 1
 1027 30 l 2
595 935 m 0
 447 935 348 878 348 748 c 2
 348 323 l 2
 348 196 454 157 592 157 c 0
 732 157 809 215 839 239 c 1
 839 810 l 2
 839 869 762 935 595 935 c 0
EndSplineSet
EndChar

StartChar: grave
Encoding: 64 96 86
Width: 616
VWidth: 0
Flags: MW
PickledData: "(dp1
S'com.typemytype.robofont.layerData'
p2
(dp3
s."
LayerCount: 2
Fore
SplineSet
115 1496 m 1
 340 1496 l 1
 478 1155 l 1
 372 1155 l 1
 115 1496 l 1
EndSplineSet
EndChar

StartChar: greater
Encoding: 30 62 87
Width: 1455
VWidth: 0
Flags: MW
PickledData: "(dp1
S'com.typemytype.robofont.layerData'
p2
(dp3
s."
LayerCount: 2
Fore
SplineSet
318 219 m 1
 1039 571 l 1
 318 927 l 1
 318 1144 l 1
 1204 673 l 1
 1204 472 l 1
 318 0 l 1
 318 219 l 1
EndSplineSet
EndChar

StartChar: h
Encoding: 72 104 88
Width: 1221
VWidth: 0
Flags: MW
PickledData: "(dp1
S'com.typemytype.robofont.layerData'
p2
(dp3
s."
LayerCount: 2
Fore
SplineSet
181 0 m 1
 181 1446 l 1
 369 1446 l 1
 369 961 l 1
 431 1033 532 1084 686 1084 c 0
 947 1084 1056 942 1056 774 c 2
 1056 0 l 1
 868 0 l 1
 868 787 l 2
 868 892 769 942 638 942 c 0
 454 942 369 861 369 759 c 2
 369 0 l 1
 181 0 l 1
EndSplineSet
EndChar

StartChar: hungarumlaut
Encoding: 345 733 89
Width: 985
VWidth: 0
Flags: MW
PickledData: "(dp1
S'com.typemytype.robofont.layerData'
p2
(dp3
s."
LayerCount: 2
Fore
SplineSet
613 1638 m 1
 823 1638 l 1
 507 1163 l 1
 384 1163 l 1
 613 1638 l 1
249 1638 m 1
 460 1638 l 1
 241 1163 l 1
 143 1163 l 1
 249 1638 l 1
EndSplineSet
EndChar

StartChar: hyphen
Encoding: 13 45 90
Width: 942
VWidth: 0
Flags: MW
PickledData: "(dp1
S'com.typemytype.robofont.layerData'
p2
(dp3
s."
LayerCount: 2
Fore
SplineSet
822 642 m 1
 822 494 l 1
 120 494 l 1
 120 642 l 1
 822 642 l 1
EndSplineSet
EndChar

StartChar: i
Encoding: 73 105 91
Width: 577
VWidth: 0
Flags: MW
PickledData: "(dp1
S'com.typemytype.robofont.layerData'
p2
(dp3
s."
LayerCount: 2
Fore
SplineSet
209 1060 m 1
 396 1060 l 1
 396 0 l 1
 209 0 l 1
 209 1060 l 1
198 1434 m 1
 403 1434 l 1
 403 1233 l 1
 198 1233 l 1
 198 1434 l 1
EndSplineSet
EndChar

StartChar: j
Encoding: 74 106 96
Width: 617
VWidth: 0
Flags: MW
PickledData: "(dp1
S'com.typemytype.robofont.layerData'
p2
(dp3
s."
LayerCount: 2
Fore
SplineSet
250 1061 m 1
 434 1061 l 1
 434 9 l 2
 434 -153 328 -251 152 -251 c 2
 46 -251 l 1
 46 -117 l 1
 116 -117 l 2
 249 -117 250 -14 250 26 c 2
 250 1061 l 1
246 1434 m 1
 433 1434 l 1
 433 1255 l 1
 246 1255 l 1
 246 1434 l 1
EndSplineSet
EndChar

StartChar: k
Encoding: 75 107 97
Width: 1127
VWidth: 0
Flags: MW
PickledData: "(dp1
S'com.typemytype.robofont.layerData'
p2
(dp3
s."
LayerCount: 2
Fore
SplineSet
181 1446 m 1
 369 1446 l 1
 369 510 l 1
 483 632 l 1
 875 1060 l 1
 1083 1060 l 1
 661 583 l 1
 1093 0 l 1
 884 0 l 1
 515 498 l 1
 369 354 l 1
 369 0 l 1
 181 0 l 1
 181 1446 l 1
EndSplineSet
EndChar

StartChar: l
Encoding: 76 108 98
Width: 690
VWidth: 0
Flags: MW
PickledData: "(dp1
S'com.typemytype.robofont.layerData'
p2
(dp3
s."
LayerCount: 2
Fore
SplineSet
186 362 m 2
 186 1446 l 1
 374 1446 l 1
 374 360 l 2
 374 217 420 145 607 145 c 2
 636 145 l 1
 636 0 l 1
 564 0 l 2
 332 0 186 83 186 362 c 2
EndSplineSet
EndChar

StartChar: less
Encoding: 28 60 99
Width: 1455
VWidth: 0
Flags: MW
PickledData: "(dp1
S'com.typemytype.robofont.layerData'
p2
(dp3
s."
LayerCount: 2
Fore
SplineSet
1137 925 m 1
 416 573 l 1
 1137 217 l 1
 1137 0 l 1
 251 471 l 1
 251 672 l 1
 1137 1144 l 1
 1137 925 l 1
EndSplineSet
EndChar

StartChar: logicalnot
Encoding: 107 172 100
Width: 864
VWidth: 0
Flags: MW
PickledData: "(dp1
S'com.typemytype.robofont.layerData'
p2
(dp3
s."
LayerCount: 2
Fore
SplineSet
721 692 m 1
 721 333 l 1
 589 333 l 1
 589 556 l 1
 98 556 l 1
 98 692 l 1
 721 692 l 1
EndSplineSet
EndChar

StartChar: lslash
Encoding: 245 322 101
Width: 490
VWidth: 0
Flags: MW
PickledData: "(dp1
S'com.typemytype.robofont.layerData'
p2
(dp3
s."
LayerCount: 2
Fore
SplineSet
125 1459 m 1
 389 1459 l 1
 389 970 l 1
 527 1020 l 1
 527 881 l 1
 389 831 l 1
 389 0 l 1
 125 0 l 1
 125 733 l 1
 -10 684 l 1
 -10 824 l 1
 125 872 l 1
 125 1459 l 1
EndSplineSet
EndChar

StartChar: m
Encoding: 77 109 102
Width: 1843
VWidth: 0
Flags: MW
PickledData: "(dp1
S'com.typemytype.robofont.layerData'
p2
(dp3
s."
LayerCount: 2
Fore
SplineSet
181 0 m 1
 181 1060 l 1
 369 1060 l 1
 369 957 l 1
 431 1029 519 1080 673 1080 c 0
 837 1080 934 1024 984 941 c 1
 1009 965 l 2
 1076 1032 1177 1080 1331 1080 c 0
 1592 1080 1680 938 1680 770 c 2
 1680 0 l 1
 1492 0 l 1
 1492 783 l 2
 1492 888 1414 938 1283 938 c 0
 1099 938 1027 857 1027 755 c 2
 1027 0 l 1
 839 0 l 1
 839 783 l 2
 839 888 756 938 625 938 c 0
 441 938 369 857 369 755 c 2
 369 0 l 1
 181 0 l 1
EndSplineSet
EndChar

StartChar: macron
Encoding: 110 175 103
Width: 472
VWidth: 0
Flags: MW
PickledData: "(dp1
S'com.typemytype.robofont.layerData'
p2
(dp3
s."
LayerCount: 2
Fore
SplineSet
37 1351 m 1
 438 1351 l 1
 438 1199 l 1
 37 1199 l 1
 37 1351 l 1
EndSplineSet
EndChar

StartChar: minus
Encoding: 401 8722 104
Width: 910
VWidth: 0
Flags: MW
PickledData: "(dp1
S'com.typemytype.robofont.layerData'
p2
(dp3
s."
LayerCount: 2
Fore
SplineSet
765 609 m 1
 765 439 l 1
 138 439 l 1
 138 609 l 1
 765 609 l 1
EndSplineSet
EndChar

StartChar: multiply
Encoding: 147 215 105
Width: 973
VWidth: 0
Flags: MW
PickledData: "(dp1
S'com.typemytype.robofont.layerData'
p2
(dp3
S'b'
(dp4
S'name'
p5
S'multiply'
p6
sS'lib'
p7
(dp8
sS'unicodes'
p9
(tsS'width'
p10
I973
sS'contours'
p11
((dp12
S'points'
p13
((dp14
S'segmentType'
p15
S'line'
p16
sS'x'
F725
sS'smooth'
p17
I00
sS'y'
F858
s(dp18
g15
S'line'
p19
sS'x'
F844
sg17
I00
sS'y'
F742
s(dp20
g15
S'line'
p21
sS'x'
F187
sg17
I00
sS'y'
F216
s(dp22
g15
S'line'
p23
sS'x'
F68
sg17
I00
sS'y'
F330
stp24
stp25
sS'components'
p26
(tsS'anchors'
p27
(tsss."
LayerCount: 2
Fore
SplineSet
735 216 m 1
 487 458 l 1
 239 216 l 1
 129 344 l 1
 366 576 l 1
 129 806 l 1
 239 937 l 1
 487 694 l 1
 735 937 l 1
 844 806 l 1
 608 576 l 1
 844 344 l 1
 735 216 l 1
EndSplineSet
EndChar

StartChar: n
Encoding: 78 110 106
Width: 1205
VWidth: 0
Flags: MW
PickledData: "(dp1
S'com.typemytype.robofont.layerData'
p2
(dp3
s."
LayerCount: 2
Fore
SplineSet
181 0 m 1
 181 1060 l 1
 369 1060 l 1
 369 957 l 1
 431 1029 527 1080 681 1080 c 0
 942 1080 1042 938 1042 770 c 2
 1042 0 l 1
 854 0 l 1
 854 783 l 2
 854 888 764 938 633 938 c 0
 449 938 369 857 369 755 c 2
 369 0 l 1
 181 0 l 1
EndSplineSet
EndChar

StartChar: numbersign
Encoding: 3 35 107
Width: 1504
VWidth: 0
Flags: MW
PickledData: "(dp1
S'com.typemytype.robofont.layerData'
p2
(dp3
s."
LayerCount: 2
Fore
SplineSet
438 -1 m 1
 260 -1 l 1
 347 475 l 1
 111 475 l 1
 111 594 l 1
 369 594 l 1
 426 910 l 1
 135 910 l 1
 135 1029 l 1
 448 1029 l 1
 524 1446 l 1
 694 1446 l 1
 620 1029 l 1
 986 1029 l 1
 1062 1446 l 1
 1232 1446 l 1
 1158 1029 l 1
 1403 1029 l 1
 1403 910 l 1
 1137 910 l 1
 1081 594 l 1
 1379 594 l 1
 1379 475 l 1
 1060 475 l 1
 976 -1 l 1
 798 -1 l 1
 885 475 l 1
 522 475 l 1
 438 -1 l 1
964 910 m 1
 599 910 l 1
 543 594 l 1
 907 594 l 1
 964 910 l 1
EndSplineSet
EndChar

StartChar: o
Encoding: 79 111 108
Width: 1167
VWidth: 0
Flags: MW
PickledData: "(dp1
S'com.typemytype.robofont.layerData'
p2
(dp3
s."
LayerCount: 2
Fore
SplineSet
1017 747 m 2
 1017 317 l 2
 1017 122 912 -20 583 -20 c 0
 267 -20 150 121 150 317 c 2
 150 747 l 2
 150 947 320 1080 583 1080 c 0
 846 1080 1017 947 1017 747 c 2
829 763 m 2
 829 888 728 938 583 938 c 0
 444 938 338 894 338 763 c 2
 338 301 l 2
 338 170 436 121 583 121 c 0
 722 121 829 171 829 301 c 2
 829 763 l 2
EndSplineSet
EndChar

StartChar: one
Encoding: 17 49 109
Width: 1184
VWidth: 0
Flags: MW
PickledData: "(dp1
S'com.typemytype.robofont.layerData'
p2
(dp3
s."
LayerCount: 2
Fore
SplineSet
592 155 m 1
 592 1277 l 1
 218 1237 l 1
 200 1396 l 1
 629 1446 l 1
 793 1446 l 1
 793 155 l 1
 1147 155 l 1
 1147 0 l 1
 793 0 l 1
 592 0 l 1
 191 0 l 1
 191 155 l 1
 592 155 l 1
EndSplineSet
EndChar

StartChar: uni00B9
Encoding: 65537 185 110
Width: 315
VWidth: 0
Flags: MW
PickledData: "(dp1
S'com.typemytype.robofont.layerData'
p2
(dp3
s."
LayerCount: 2
Fore
SplineSet
117 1596 m 1
 238 1596 l 1
 238 639 l 1
 88 639 l 1
 88 1368 l 1
 8 1368 l 1
 8 1475 l 1
 59 1498 96 1538 117 1596 c 1
EndSplineSet
EndChar

StartChar: oslash
Encoding: 180 248 111
Width: 1167
VWidth: 0
Flags: MW
PickledData: "(dp1
S'com.typemytype.robofont.layerData'
p2
(dp3
s."
LayerCount: 2
Fore
SplineSet
811 1251 m 1
 901 1220 l 1
 363 -226 l 1
 271 -195 l 1
 811 1251 l 1
EndSplineSet
Refer: 108 111 N 1 0 0 1 0 0 2
EndChar

StartChar: p
Encoding: 80 112 112
Width: 1198
VWidth: 0
Flags: MW
PickledData: "(dp1
S'com.typemytype.robofont.layerData'
p2
(dp3
s."
LayerCount: 2
Fore
SplineSet
369 -371 m 1
 181 -371 l 1
 181 1060 l 1
 329 1060 l 1
 351 980 l 1
 407 1030 522 1076 643 1076 c 0
 914 1076 1048 933 1048 729 c 2
 1048 344 l 2
 1048 131 895 -24 619 -24 c 0
 500 -24 420 8 369 34 c 1
 369 -371 l 1
369 824 m 1
 369 179 l 1
 417 152 498 117 607 117 c 0
 755 117 860 194 860 324 c 2
 860 742 l 2
 860 869 752 934 614 934 c 0
 481 934 386 850 369 824 c 1
EndSplineSet
EndChar

StartChar: percent
Encoding: 5 37 113
Width: 2107
VWidth: 0
Flags: MW
PickledData: "(dp1
S'com.typemytype.robofont.layerData'
p2
(dp3
s."
LayerCount: 2
Fore
SplineSet
352 1020 m 2
 352 879 369 774 507 774 c 0
 645 774 664 879 664 1020 c 2
 664 1113 l 2
 664 1251 651 1345 507 1345 c 0
 364 1345 352 1251 352 1115 c 2
 352 1020 l 2
209 1037 m 2
 209 1090 l 2
 209 1323 276 1461 507 1461 c 0
 737 1461 807 1324 809 1091 c 1
 809 1037 l 2
 809 808 737 658 507 658 c 0
 277 658 209 809 209 1037 c 2
1248 1446 m 1
 1397 1446 l 1
 859 0 l 1
 705 0 l 1
 1248 1446 l 1
1313 360 m 2
 1313 413 l 2
 1313 646 1380 784 1611 784 c 0
 1841 784 1911 647 1913 414 c 1
 1913 360 l 2
 1913 131 1841 -19 1611 -19 c 0
 1381 -19 1313 132 1313 360 c 2
1456 343 m 2
 1456 202 1473 97 1611 97 c 0
 1749 97 1768 202 1768 343 c 2
 1768 436 l 2
 1768 574 1755 668 1611 668 c 0
 1468 668 1456 574 1456 438 c 2
 1456 343 l 2
EndSplineSet
EndChar

StartChar: period
Encoding: 14 46 114
Width: 481
VWidth: 0
Flags: MW
PickledData: "(dp1
S'com.typemytype.robofont.layerData'
p2
(dp3
s."
LayerCount: 2
Fore
SplineSet
141 206 m 1
 346 206 l 1
 346 0 l 1
 141 0 l 1
 141 206 l 1
EndSplineSet
EndChar

StartChar: periodcentered
Encoding: 116 183 115
Width: 412
VWidth: 0
Flags: MW
PickledData: "(dp1
S'com.typemytype.robofont.layerData'
p2
(dp3
s."
LayerCount: 2
Fore
SplineSet
108 1446 m 1
 313 1446 l 1
 313 1240 l 1
 108 1240 l 1
 108 1446 l 1
EndSplineSet
EndChar

StartChar: perthousand
Encoding: 398 8240 116
Width: 2886
VWidth: 0
Flags: MW
PickledData: "(dp1
S'com.typemytype.robofont.layerData'
p2
(dp3
s."
LayerCount: 2
Fore
SplineSet
2235 343 m 2
 2235 202 2252 97 2390 97 c 0
 2528 97 2547 202 2547 343 c 2
 2547 436 l 2
 2547 574 2534 668 2390 668 c 0
 2247 668 2235 574 2235 438 c 2
 2235 343 l 2
2092 360 m 2
 2092 413 l 2
 2092 646 2159 784 2390 784 c 0
 2620 784 2690 647 2692 414 c 1
 2692 360 l 2
 2692 131 2620 -19 2390 -19 c 0
 2160 -19 2092 132 2092 360 c 2
EndSplineSet
Refer: 113 37 N 1 0 0 1 0 0 2
EndChar

StartChar: plus
Encoding: 11 43 117
Width: 942
VWidth: 0
Flags: MW
PickledData: "(dp1
S'com.typemytype.robofont.layerData'
p2
(dp3
s."
LayerCount: 2
Fore
SplineSet
547 968 m 1
 547 642 l 1
 822 642 l 1
 822 494 l 1
 547 494 l 1
 547 156 l 1
 396 156 l 1
 396 494 l 1
 120 494 l 1
 120 642 l 1
 396 642 l 1
 396 968 l 1
 547 968 l 1
EndSplineSet
EndChar

StartChar: plusminus
Encoding: 112 177 118
Width: 910
VWidth: 0
Flags: MW
PickledData: "(dp1
S'com.typemytype.robofont.layerData'
p2
(dp3
s."
LayerCount: 2
Fore
SplineSet
765 120 m 1
 765 0 l 1
 138 0 l 1
 138 120 l 1
 765 120 l 1
512 992 m 1
 512 726 l 1
 765 726 l 1
 765 611 l 1
 512 611 l 1
 512 334 l 1
 391 334 l 1
 391 611 l 1
 138 611 l 1
 138 726 l 1
 391 726 l 1
 391 992 l 1
 512 992 l 1
EndSplineSet
EndChar

StartChar: q
Encoding: 81 113 119
Width: 1198
VWidth: 0
Flags: MW
PickledData: "(dp1
S'com.typemytype.robofont.layerData'
p2
(dp3
s."
LayerCount: 2
Fore
SplineSet
585 935 m 0
 437 935 338 878 338 748 c 2
 338 284 l 2
 338 157 444 118 582 118 c 0
 722 118 819 180 829 201 c 1
 829 810 l 2
 829 869 752 935 585 935 c 0
1017 -371 m 1
 829 -371 l 1
 829 47 l 1
 764 -3 643 -24 570 -24 c 0
 299 -24 150 110 150 314 c 2
 150 728 l 2
 150 941 281 1076 557 1076 c 0
 665 1076 799 1025 829 975 c 1
 829 1060 l 1
 1017 1060 l 1
 1017 -371 l 1
EndSplineSet
EndChar

StartChar: quotedbl
Encoding: 2 34 120
Width: 752
VWidth: 0
Flags: MW
PickledData: "(dp1
S'com.typemytype.robofont.layerData'
p2
(dp3
s."
LayerCount: 2
Fore
SplineSet
327 1446 m 1
 258 870 l 1
 186 870 l 1
 122 1446 l 1
 327 1446 l 1
630 1446 m 1
 561 870 l 1
 489 870 l 1
 425 1446 l 1
 630 1446 l 1
EndSplineSet
EndChar

StartChar: quotesingle
Encoding: 7 39 121
Width: 583
VWidth: 0
Flags: MW
PickledData: "(dp1
S'com.typemytype.robofont.layerData'
p2
(dp3
s."
LayerCount: 2
Fore
SplineSet
414 1446 m 1
 345 870 l 1
 273 870 l 1
 209 1446 l 1
 414 1446 l 1
EndSplineSet
EndChar

StartChar: r
Encoding: 82 114 122
Width: 776
VWidth: 0
Flags: MW
PickledData: "(dp1
S'com.typemytype.robofont.layerData'
p2
(dp3
s."
LayerCount: 2
Fore
SplineSet
184 0 m 1
 184 1060 l 1
 372 1060 l 1
 372 950 l 1
 423 1027 628 1088 718 1075 c 1
 712 914 l 1
 593 904 402 893 372 812 c 1
 372 0 l 1
 184 0 l 1
EndSplineSet
EndChar

StartChar: registered
Encoding: 109 174 123
Width: 1857
VWidth: 0
Flags: MW
PickledData: "(dp1
S'com.typemytype.robofont.layerData'
p2
(dp3
s."
LayerCount: 2
Fore
SplineSet
616 307 m 1
 616 1159 l 1
 1019 1159 l 2
 1176 1159 1278 1088 1282 914 c 1
 1282 882 l 2
 1282 748 1222 679 1130 654 c 1
 1314 307 l 1
 1186 307 l 1
 1006 640 l 1
 747 640 l 1
 747 307 l 1
 616 307 l 1
747 1068 m 1
 747 730 l 1
 1014 730 l 2
 1128 730 1149 802 1150 865 c 1
 1150 907 l 2
 1150 966 1141 1068 1023 1068 c 2
 747 1068 l 1
928 -14 m 0
 515 -14 172 303 172 722 c 0
 172 1139 515 1456 928 1456 c 0
 1344 1456 1685 1139 1685 722 c 0
 1685 303 1344 -14 928 -14 c 0
930 82 m 0
 1296 82 1579 357 1579 722 c 0
 1579 1086 1296 1361 930 1361 c 0
 566 1361 281 1086 281 722 c 0
 281 357 566 82 930 82 c 0
EndSplineSet
EndChar

StartChar: ring
Encoding: 342 730 124
Width: 566
VWidth: 0
Flags: HMW
PickledData: "(dp1
S'com.typemytype.robofont.layerData'
p2
(dp3
s."
LayerCount: 2
Fore
SplineSet
-24.748046875 624.612304688 m 0
 90.513671875 624.612304688 149.954272168 542.146444525 149.954272168 448.416408118 c 0
 149.954272168 356.13527019 92.3369140625 275.567382812 -26.3525390625 275.567382812 c 0
 -142.75 275.567382812 -199.597630597 355.669692221 -199.597630597 447.711719822 c 0
 -199.597630597 541.672360602 -140.35546875 624.612304688 -24.748046875 624.612304688 c 0
-24.44921875 185.036132812 m 0
 159.548828125 185.036132812 250.106164034 310.17618622 250.106164034 447.26226105 c 0
 250.106164034 586.266857896 156.99609375 714.244140625 -26.2177734375 714.244140625 c 0
 -207.081054688 714.244140625 -299.721403141 586.450565861 -299.721403141 447.53599921 c 0
 -299.721403141 310.357478471 -209.381835938 185.036132812 -24.44921875 185.036132812 c 0
EndSplineSet
EndChar

StartChar: s
Encoding: 83 115 125
Width: 947
VWidth: 0
Flags: MW
PickledData: "(dp1
S'com.typemytype.robofont.layerData'
p2
(dp3
s."
LayerCount: 2
Fore
SplineSet
115 150 m 1
 208 259 l 1
 251 212 342 128 486 125 c 0
 619 123 679 170 689 270 c 0
 696 348 663 394 575 430 c 2
 348 524 l 2
 211 581 126 657 131 817 c 0
 137 1009 299 1081 482 1081 c 0
 677 1081 783 991 834 930 c 1
 758 823 l 1
 705 878 613 935 494 937 c 0
 385 939 311 897 307 825 c 0
 303 765 323 714 409 678 c 2
 643 579 l 2
 777 522 858 448 854 273 c 1
 851 84 709 -23 487 -20 c 1
 334 -16 200 46 115 150 c 1
EndSplineSet
EndChar

StartChar: semicolon
Encoding: 27 59 126
Width: 684
VWidth: 0
Flags: MW
PickledData: "(dp1
S'com.typemytype.robofont.layerData'
p2
(dp3
s."
LayerCount: 2
Fore
SplineSet
263 1084 m 1
 468 1084 l 1
 468 878 l 1
 263 878 l 1
 263 1084 l 1
257 421 m 1
 491 421 l 1
 491 260 l 2
 491 69 400 -74 342 -128 c 1
 261 -84 l 1
 308 -29 375 78 375 210 c 1
 257 210 l 1
 257 421 l 1
EndSplineSet
EndChar

StartChar: seven
Encoding: 23 55 127
Width: 1130
VWidth: 0
Flags: MW
PickledData: "(dp1
S'com.typemytype.robofont.layerData'
p2
(dp3
s."
LayerCount: 2
Fore
SplineSet
505 0 m 1
 294 0 l 1
 794 1291 l 1
 114 1291 l 1
 114 1446 l 1
 995 1446 l 1
 995 1289 l 1
 505 0 l 1
EndSplineSet
EndChar

StartChar: slash
Encoding: 15 47 128
Width: 979
VWidth: 0
Flags: MW
PickledData: "(dp1
S'com.typemytype.robofont.layerData'
p2
(dp3
s."
LayerCount: 2
Fore
SplineSet
665 1446 m 1
 858 1446 l 1
 320 0 l 1
 125 0 l 1
 665 1446 l 1
EndSplineSet
EndChar

StartChar: t
Encoding: 84 116 130
Width: 790
VWidth: 0
Flags: MW
PickledData: "(dp1
S'com.typemytype.robofont.layerData'
p2
(dp3
s."
LayerCount: 2
Fore
SplineSet
592 -5 m 2
 353 -5 235 120 235 323 c 2
 235 944 l 1
 58 944 l 1
 58 1061 l 1
 242 1061 l 1
 265 1388 l 1
 422 1388 l 1
 422 1061 l 1
 700 1061 l 1
 700 944 l 1
 422 944 l 1
 422 315 l 2
 422 195 468 141 619 141 c 2
 710 141 l 1
 710 -5 l 1
 592 -5 l 2
EndSplineSet
EndChar

StartChar: uni00B3
Encoding: 65538 179 131
Width: 428
VWidth: 0
Flags: MW
PickledData: "(dp1
S'com.typemytype.robofont.layerData'
p2
(dp3
s."
LayerCount: 2
Fore
SplineSet
387 1420 m 2
 387 1289 l 2
 387 1212 374 1174 315 1162 c 1
 374 1149 387 1109 387 1034 c 2
 387 818 l 2
 387 674 375 636 217 636 c 0
 49 636 37 668 37 818 c 2
 37 1046 l 1
 186 1046 l 1
 186 771 l 2
 186 749 193 735 213 735 c 0
 231 735 238 749 238 771 c 2
 238 1079 l 2
 238 1098 229 1107 211 1107 c 2
 156 1107 l 1
 156 1215 l 1
 211 1215 l 2
 229 1215 238 1225 238 1242 c 2
 238 1467 l 2
 238 1489 231 1500 213 1500 c 0
 193 1500 186 1489 186 1467 c 2
 186 1272 l 1
 37 1272 l 1
 37 1420 l 2
 37 1568 49 1602 213 1602 c 0
 375 1602 387 1568 387 1420 c 2
EndSplineSet
EndChar

StartChar: trademark
Encoding: 371 8482 132
Width: 1698
VWidth: 0
Flags: MW
PickledData: "(dp1
S'com.typemytype.robofont.layerData'
p2
(dp3
s."
LayerCount: 2
Fore
SplineSet
1021 1446 m 1
 1205 1033 l 1
 1391 1446 l 1
 1587 1446 l 1
 1587 766 l 1
 1460 766 l 1
 1460 1329 l 1
 1288 931 l 1
 1127 931 l 1
 948 1329 l 1
 948 766 l 1
 823 766 l 1
 823 1446 l 1
 1021 1446 l 1
670 1446 m 1
 670 1332 l 1
 458 1332 l 1
 458 766 l 1
 323 766 l 1
 323 1332 l 1
 111 1332 l 1
 111 1446 l 1
 670 1446 l 1
EndSplineSet
EndChar

StartChar: uni00B2
Encoding: 113 178 133
Width: 428
VWidth: 0
Flags: MW
PickledData: "(dp1
S'com.typemytype.robofont.layerData'
p2
(dp3
s."
LayerCount: 2
Fore
SplineSet
389 1420 m 2
 389 1296 l 2
 389 1253 374 1213 360 1174 c 1
 195 751 l 1
 389 751 l 1
 389 639 l 1
 41 639 l 1
 41 751 l 1
 217 1197 l 2
 227 1225 240 1257 240 1300 c 2
 240 1467 l 2
 240 1489 233 1500 213 1500 c 0
 193 1500 188 1489 188 1467 c 2
 188 1272 l 1
 39 1272 l 1
 39 1420 l 2
 39 1568 51 1602 213 1602 c 0
 375 1602 389 1568 389 1420 c 2
EndSplineSet
EndChar

StartChar: u
Encoding: 85 117 134
Width: 1197
VWidth: 0
Flags: MW
PickledData: "(dp1
S'com.typemytype.robofont.layerData'
p2
(dp3
s."
LayerCount: 2
Fore
SplineSet
1024 1060 m 1
 1024 0 l 1
 836 0 l 1
 836 103 l 1
 774 31 682 -20 528 -20 c 0
 267 -20 174 122 174 290 c 2
 174 1060 l 1
 362 1060 l 1
 362 285 l 2
 362 180 445 122 576 122 c 0
 760 122 836 208 836 297 c 2
 836 1060 l 1
 1024 1060 l 1
EndSplineSet
EndChar

StartChar: underscore
Encoding: 63 95 139
Width: 929
VWidth: 0
Flags: MW
PickledData: "(dp1
S'com.typemytype.robofont.layerData'
p2
(dp3
s."
LayerCount: 2
Fore
SplineSet
915 89 m 1
 915 -82 l 1
 14 -82 l 1
 14 89 l 1
 915 89 l 1
EndSplineSet
EndChar

StartChar: v
Encoding: 86 118 140
Width: 1106
VWidth: 0
Flags: MW
PickledData: "(dp1
S'com.typemytype.robofont.layerData'
p2
(dp3
s."
LayerCount: 2
Fore
SplineSet
673 0 m 1
 465 0 l 1
 72 1060 l 1
 261 1060 l 1
 572 194 l 1
 848 1060 l 1
 1032 1060 l 1
 673 0 l 1
EndSplineSet
EndChar

StartChar: w
Encoding: 87 119 141
Width: 1597
VWidth: 0
Flags: MW
PickledData: "(dp1
S'com.typemytype.robofont.layerData'
p2
(dp3
s."
LayerCount: 2
Fore
SplineSet
550 0 m 1
 362 0 l 1
 78 1060 l 1
 249 1060 l 1
 459 209 l 1
 681 1060 l 1
 757 1060 l 1
 848 1060 l 1
 928 1060 l 1
 1138 209 l 1
 1361 1060 l 1
 1527 1060 l 1
 1230 0 l 1
 1041 0 l 1
 801 894 l 1
 550 0 l 1
EndSplineSet
EndChar

StartChar: x
Encoding: 88 120 142
Width: 1011
VWidth: 0
Flags: MW
PickledData: "(dp1
S'com.typemytype.robofont.layerData'
p2
(dp3
s."
LayerCount: 2
Fore
SplineSet
65 1060 m 1
 247 1060 l 1
 512 666 l 1
 781 1060 l 1
 955 1060 l 1
 600 535 l 1
 960 0 l 1
 784 0 l 1
 511 403 l 1
 239 0 l 1
 59 0 l 1
 422 533 l 1
 65 1060 l 1
EndSplineSet
EndChar

StartChar: y
Encoding: 89 121 143
Width: 1143
VWidth: 0
Flags: MW
PickledData: "(dp1
S'com.typemytype.robofont.layerData'
p2
(dp3
s."
LayerCount: 2
Fore
SplineSet
237 -322 m 1
 237 -175 l 1
 335 -175 l 2
 416 -175 492 -145 532 4 c 1
 79 1060 l 1
 278 1060 l 1
 618 216 l 1
 923 1060 l 1
 1113 1060 l 1
 731 45 l 1
 638 -227 563 -322 342 -322 c 2
 237 -322 l 1
EndSplineSet
EndChar

StartChar: z
Encoding: 90 122 144
Width: 943
VWidth: 0
Flags: MW
PickledData: "(dp1
S'com.typemytype.robofont.layerData'
p2
(dp3
s."
LayerCount: 2
Fore
SplineSet
163 1060 m 1
 829 1060 l 1
 829 945 l 1
 340 124 l 1
 837 124 l 1
 837 0 l 1
 145 0 l 1
 145 118 l 1
 631 937 l 1
 163 937 l 1
 163 1060 l 1
EndSplineSet
EndChar

StartChar: zero
Encoding: 16 48 146
Width: 1386
VWidth: 0
Flags: HMW
PickledData: "(dp1
S'com.typemytype.robofont.layerData'
p2
(dp3
s."
LayerCount: 2
Fore
SplineSet
702 126 m 0
 938.923611633 126 1055.07751032 423.492312493 1055.07751032 722.968447197 c 0
 1055.07751032 1026.46549789 935.783592082 1332 702 1332 c 0
 457.11942194 1332 333.212973561 1028.12615276 333.212973561 725.446228865 c 0
 333.212973561 425.135461343 455.187315664 126 702 126 c 0
702 -24 m 0
 304.255319176 -24 108.20221828 349.129235738 108.20221828 724.055783592 c 0
 108.20221828 1102.61175291 308.069417748 1483 702 1483 c 0
 1081.96594696 1483 1273.13503593 1104.69321238 1273.13503593 727.167229237 c 0
 1273.13503593 351.196422189 1083.53770234 -24 702 -24 c 0
EndSplineSet
EndChar

StartChar: ogonek
Encoding: 343 731 319
Width: 579
VWidth: 0
Flags: MW
LayerCount: 2
Fore
SplineSet
456 4 m 1
 518 4 l 1
 436 -28 338 -142 338 -228 c 0
 338 -283 378 -326 488 -329 c 1
 488 -426 l 1
 295 -422 220 -340 220 -248 c 0
 220 -139 324 -17 456 4 c 1
EndSplineSet
EndChar

StartChar: kgreenlandic
Encoding: 238 312 328
Width: 1127
VWidth: 0
Flags: HMW
LayerCount: 2
Fore
SplineSet
181 1061 m 1
 369 1061 l 1
 369 510 l 1
 483 632 l 1
 875 1060 l 1
 1083 1060 l 1
 661 583 l 1
 1093 0 l 1
 884 0 l 1
 515 498 l 1
 369 354 l 1
 369 0 l 1
 181 0 l 1
 181 1061 l 1
EndSplineSet
EndChar

StartChar: uni0237
Encoding: 337 567 329
Width: 617
VWidth: 0
Flags: HW
LayerCount: 2
Fore
SplineSet
250 1061 m 1
 434 1061 l 1
 434 9 l 2
 434 -153 328 -251 152 -251 c 2
 46 -251 l 1
 46 -117 l 1
 116 -117 l 2
 249 -117 250 -14 250 26 c 2
 250 1061 l 1
EndSplineSet
EndChar

StartChar: uni030F
Encoding: 346 783 330
Width: 985
VWidth: 0
Flags: HW
LayerCount: 2
Fore
SplineSet
326 1638 m 5
 555 1163 l 5
 432 1163 l 5
 116 1638 l 5
 326 1638 l 5
690 1638 m 5
 796 1163 l 5
 698 1163 l 5
 479 1638 l 5
 690 1638 l 5
EndSplineSet
EndChar

StartChar: uni0311
Encoding: 347 785 331
Width: 676
VWidth: 0
Flags: HW
LayerCount: 2
Fore
SplineSet
121 1188.61 m 1
 121 1314.41 203.91796875 1407 327.001953125 1407 c 0
 450.41796875 1407 534 1314 534 1188.61 c 1
 418 1188.61 l 1
 418 1248.63 393.8203125 1308.0703125 328.990234375 1308.0703125 c 0
 263.569335938 1308.0703125 237.48 1247.85 236 1188.61 c 1
 121 1188.61 l 1
EndSplineSet
EndChar

StartChar: tilde
Encoding: 344 732 347
Width: 579
VWidth: 0
Flags: HW
LayerCount: 2
Fore
SplineSet
203.542299253 -164.032485678 m 0
 155.230869513 -164.032485678 139.6953125 -185.061523438 107.504882812 -250.76953125 c 1
 19.2646484375 -210.486328125 l 1
 79.2041015625 -86.0810546875 133.652018451 -43.8078403526 213.20072212 -43.8078403526 c 0
 325.552816893 -43.8078403526 366.930664062 -125.826171875 435.510742188 -125.826171875 c 0
 483.822265625 -125.826171875 499.357421875 -104.797851562 531.547851562 -39.0888671875 c 1
 619.787109375 -79.373046875 l 1
 559.84765625 -203.778320312 505.400390625 -246.051757812 425.8515625 -246.051757812 c 0
 313.499023438 -246.051757812 272.122489369 -164.032485678 203.542299253 -164.032485678 c 0
EndSplineSet
EndChar

StartChar: Thorn
Encoding: 154 222 354
Width: 1348
VWidth: 0
Flags: HW
LayerCount: 2
Fore
SplineSet
426 1019 m 1
 426 475 l 1
 804 475 l 2
 979 475 1002 621 1003 728 c 1
 1003 744 l 2
 1003 844 988 1019 807 1019 c 2
 426 1019 l 1
426 322 m 1
 426 245.333007812 426 76.6666666667 426 0 c 1
 224 0 l 1
 224 1446 l 1
 426 1446 l 1
 426 1172 l 1
 801 1172 l 2
 1044 1172 1199 1046 1205 750 c 1
 1205 438 1046 322 800 322 c 2
 426 322 l 1
EndSplineSet
EndChar

StartChar: germandbls
Encoding: 155 223 355
Width: 1462
VWidth: 0
Flags: HW
LayerCount: 2
Fore
SplineSet
666 -1 m 5
 1126.466764 -1 1334.35706661 128.01198249 1334.35706661 446.259406989 c 4
 1334.35706661 638.837278764 1225.11909354 797.181020884 1003 843 c 5
 1135 878.299804688 1188 1008 1188 1135 c 4
 1188 1387.4453125 959.319335938 1486.08886719 700.729492188 1486.08886719 c 4
 442.319335938 1486.08886719 224 1341.64754401 224 1016 c 6
 224 -1 l 5
 426 -1 l 5
 426 1005 l 6
 426 1235.76367188 548.247070312 1334.00390625 708.198242188 1334.00390625 c 4
 863.684570312 1334.00390625 987 1272.171875 987 1118 c 4
 987 988 957 873 717 873 c 6
 671 873 l 5
 671 736 l 5
 746 736 l 6
 1090.78979078 736 1133.79511966 612.24433656 1133.79511966 440.547279861 c 4
 1133.79511966 186.525523896 907.202623554 149 666 149 c 5
 666 -1 l 5
EndSplineSet
EndChar

StartChar: thorn
Encoding: 186 254 360
Width: 1198
VWidth: 0
Flags: HW
LayerCount: 2
Fore
SplineSet
369 824 m 1
 369 179 l 1
 417 152 498 117 607 117 c 0
 755 117 860 194 860 324 c 2
 860 742 l 2
 860 869 752 934 614 934 c 0
 481 934 386 850 369 824 c 1
369 -371 m 1
 181 -371 l 1
 181 1447.29980469 l 1
 369 1447.29980469 l 1
 369 994.462172028 l 1
 429.466530512 1038.52714259 533.789383251 1076 643 1076 c 0
 914 1076 1048 933 1048 729 c 2
 1048 344 l 2
 1048 131 895 -24 619 -24 c 0
 500 -24 420 8 369 34 c 1
 369 -371 l 1
EndSplineSet
EndChar

StartChar: hbar
Encoding: 221 295 361
Width: 1221
VWidth: 0
Flags: HW
LayerCount: 2
Fore
SplineSet
763 1160.40039062 m 5
 84 1160.40039062 l 5
 84 1308.40039062 l 5
 763 1308.40039062 l 5
 763 1160.40039062 l 5
EndSplineSet
Refer: 88 104 N 1 0 0 1 0 0 2
EndChar

StartChar: Hbar
Encoding: 220 294 362
Width: 1529
VWidth: 0
Flags: HW
LayerCount: 2
Fore
SplineSet
1445 1061 m 1
 84 1061 l 1
 84 1209 l 1
 1445 1209 l 1
 1445 1061 l 1
EndSplineSet
Refer: 13 72 N 1 0 0 1 0 0 2
EndChar

StartChar: dollar
Encoding: 4 36 363
Width: 947
VWidth: 0
Flags: HW
LayerCount: 2
Fore
SplineSet
547 1445 m 5
 547 -277 l 5
 459 -277 l 5
 459 1445 l 5
 547 1445 l 5
EndSplineSet
Refer: 125 115 N 1 0 0 1 0 0 2
EndChar

StartChar: six
Encoding: 22 54 364
Width: 1348
VWidth: 0
Flags: HW
LayerCount: 2
Fore
SplineSet
372.071289062 476.299804688 m 0
 372.071289062 205.485351562 430.017578125 126 699.071289062 126 c 0
 969.134765625 126 1003.07128906 226.6328125 1003.07128906 476.299804688 c 0
 1003.07128906 713.299804688 953.071289062 811.299804688 697.071289062 811.299804688 c 0
 443.071289062 811.299804688 372.071289062 733.299804688 372.071289062 476.299804688 c 0
1198 484.3671875 m 1
 1195.23828125 192.663085938 1124.79785156 -24 699.071289062 -24 c 0
 238.48046875 -24 170.264648438 218 170.264648438 463.083007812 c 1
 159.970703125 1060.75390625 495.295898438 1316.77441406 949.071289062 1490 c 5
 1017.07128906 1357 l 1
 734.71875 1252.28808594 465.25390625 1068.60546875 388.243164062 850.456054688 c 1
 434.555664062 898.404296875 576.122070312 962.299804688 727.071289062 962.299804688 c 0
 1095.84375 962.299804688 1195.30664062 781.040039062 1198 484.3671875 c 1
EndSplineSet
EndChar

StartChar: dcroat
Encoding: 203 273 365
Width: 1187
VWidth: 0
Flags: HW
LayerCount: 2
Fore
SplineSet
1151 1160.40039062 m 5
 472 1160.40039062 l 5
 472 1308.40039062 l 5
 1151 1308.40039062 l 5
 1151 1160.40039062 l 5
EndSplineSet
Refer: 64 100 N 1 0 0 1 0 0 2
EndChar

StartChar: quotesinglbase
Encoding: 361 8218 366
Width: 495
VWidth: 0
Flags: HW
LayerCount: 2
Fore
SplineSet
135 211 m 1
 369 211 l 1
 369 50 l 2
 369 -141 278 -284 220 -338 c 1
 139 -294 l 1
 186 -239 253 -132 253 0 c 1
 135 0 l 1
 135 211 l 1
EndSplineSet
EndChar

StartChar: quotedblbase
Encoding: 364 8222 367
Width: 882
VWidth: 0
Flags: HW
LayerCount: 2
Fore
SplineSet
522 211 m 1
 756 211 l 1
 756 50 l 2
 756 -141 665 -284 607 -338 c 1
 526 -294 l 1
 573 -239 640 -132 640 0 c 1
 522 0 l 1
 522 211 l 1
136 211 m 1
 370 211 l 1
 370 50 l 2
 370 -141 278 -284 220 -338 c 1
 140 -294 l 1
 187 -239 254 -132 254 0 c 1
 136 0 l 1
 136 211 l 1
EndSplineSet
EndChar

StartChar: integral
Encoding: 373 8747 372
Width: 890
VWidth: 0
Flags: HW
LayerCount: 2
Fore
SplineSet
710 1334 m 1
 695 1335 681 1336 668 1336 c 0
 521 1336 521 1247 521 1177 c 6
 521 91 l 6
 521 -81 494 -191 253 -191 c 0
 220 -191 190 -189 141 -183 c 1
 141 -59 l 1
 164 -61 184 -62 201 -62 c 0
 333 -62 333 -1 333 63 c 6
 333 1155 l 6
 333 1321 353 1466 560 1466 c 0
 594 1466 654 1464 710 1458 c 1
 710 1334 l 1
EndSplineSet
EndChar

StartChar: eight
Encoding: 24 56 375
Width: 1280
VWidth: 0
Flags: HW
LayerCount: 2
Back
SplineSet
650 -23 m 5
 345 -27 139 124 133 380 c 4
 127 618 302.321289062 715.21484375 478 780 c 6
 759 891 l 6
 916.90625 953.375976562 944 1040 936 1137 c 4
 927 1246 849 1328 651 1326 c 5
 452 1328 371 1246 362 1137 c 4
 354 1040 381.09375 953.375976562 539 891 c 6
 820 780 l 6
 995.678710938 715.21484375 1171 618 1165 380 c 4
 1159 124 954 -27 650 -23 c 5
650 138 m 4
 834 138 960 196 973 352 c 4
 984 483 933.602539062 585.711914062 763 646 c 6
 497 740 l 6
 317.870117188 798.875 158 900 166 1118 c 4
 175 1374 400 1481 650 1481 c 4
 898 1481 1123 1374 1132 1118 c 4
 1140 900 980.129882812 798.875 801 740 c 6
 535 646 l 6
 364.397460938 585.711914062 314 483 325 352 c 4
 338 196 465 138 650 138 c 4
EndSplineSet
Fore
SplineSet
314.76171875 380.727539062 m 0
 314.76171875 201.142578125 445.985351562 138 641 138 c 0
 834.954101562 138 965.237304688 201.260742188 965.237304688 380.721679688 c 0
 965.237304688 552.1484375 825.759765625 637.641601562 640 703.286132812 c 1
 454.483398438 637.727539062 314.76171875 552.32421875 314.76171875 380.727539062 c 0
1156.1328125 390.439453125 m 0
 1156.1328125 129.534179688 952.671875 -23.0771484375 652.7421875 -23.0771484375 c 0
 648.844726562 -23.0771484375 644.930664062 -23.0517578125 641 -23 c 0
 637.056640625 -23.0517578125 633.12890625 -23.0771484375 629.21875 -23.0771484375 c 0
 328.274414062 -23.0771484375 123.8671875 129.518554688 123.8671875 390.446289062 c 0
 123.8671875 601.604492188 287.813476562 716.001953125 445.000976562 779.987304688 c 1
 296.735351562 840.1875 156.75 934.67578125 156.75 1117.5078125 c 0
 156.75 1384.26855469 388.418945312 1481 641 1481 c 0
 891.594726562 1481 1123.25 1384.22753906 1123.25 1117.49414062 c 0
 1123.25 934.30078125 983.264648438 832.1875 834.999023438 771.987304688 c 1
 992.186523438 708.001953125 1156.1328125 601.348632812 1156.1328125 390.439453125 c 0
351.852539062 1123.48632812 m 0
 351.852539062 1038.73339844 390.491210938 963.254882812 530 898 c 2
 640 846.547851562 l 1
 750 898 l 2
 889.508789062 963.254882812 928.147460938 1038.73339844 928.147460938 1123.48632812 c 0
 928.147460938 1255.86816406 842.375 1326 641 1326 c 1
 434.375 1326 351.852539062 1255.9765625 351.852539062 1123.48632812 c 0
EndSplineSet
EndChar

StartChar: nine
Encoding: 25 57 376
Width: 1348
VWidth: 0
Flags: HW
LayerCount: 2
Fore
SplineSet
170.259765625 974.6328125 m 1
 173.021484375 1266.33691406 273.461914062 1483 669.188476562 1483 c 0
 1129.77929688 1483 1197.99511719 1241 1197.99511719 995.916992188 c 0
 1197.99511719 318.599609375 932.963867188 114.225585938 469.188476562 -31 c 5
 399.188476562 122 l 5
 755.108398438 225.48828125 898.595703125 391.62109375 971.282226562 577.443359375 c 1
 908.602539062 535.963867188 778.806640625 496.700195312 671.188476562 496.700195312 c 0
 302.416015625 496.700195312 172.953125 677.959960938 170.259765625 974.6328125 c 1
996.188476562 982.700195312 m 0
 996.188476562 1253.51464844 938.2421875 1333 669.188476562 1333 c 0
 439.125 1333 365.188476562 1232.3671875 365.188476562 982.700195312 c 0
 365.188476562 745.700195312 435.188476562 647.700195312 671.188476562 647.700195312 c 0
 925.188476562 647.700195312 996.188476562 745.700195312 996.188476562 982.700195312 c 0
EndSplineSet
EndChar
